<svg width="50" height="50" fill="none" xmlns="http://www.w3.org/2000/svg"><path d="M25 37.5c.708 0 1.302-.24 1.782-.72.479-.478.718-1.072.718-1.78v-7.5h7.563c.708 0 1.291-.24 1.75-.72.458-.478.687-1.072.687-1.78s-.24-1.302-.72-1.782c-.478-.479-1.072-.718-1.78-.718h-7.5v-7.563c0-.708-.24-1.291-.718-1.75-.48-.458-1.074-.687-1.782-.687s-1.302.24-1.78.717c-.48.48-.72 1.075-.72 1.783v7.5h-7.563c-.708 0-1.291.24-1.75.718-.458.48-.687 1.074-.687 1.782s.24 1.302.717 1.78c.48.48 1.075.72 1.783.72h7.5v7.563c0 .708.24 1.291.72 1.75.478.458 1.072.687 1.78.687zM25 50c-3.458 0-6.708-.657-9.75-1.97-3.042-1.312-5.688-3.093-7.938-5.343s-4.03-4.895-5.342-7.937C.657 31.708 0 28.458 0 25s.657-6.708 1.97-9.75c1.312-3.042 3.093-5.688 5.343-7.938s4.895-4.031 7.937-5.345C18.292.657 21.542 0 25 0s6.708.656 9.75 1.968c3.042 1.313 5.688 3.095 7.938 5.345 2.25 2.25 4.03 4.895 5.342 7.937C49.343 18.292 50 21.542 50 25s-.657 6.708-1.97 9.75c-1.312 3.042-3.093 5.688-5.343 7.938s-4.895 4.03-7.937 5.342C31.708 49.343 28.458 50 25 50zm0-5c5.542 0 10.26-1.947 14.157-5.843C43.053 35.261 45 30.542 45 25s-1.947-10.26-5.843-14.158C35.261 6.947 30.542 5 25 5s-10.26 1.947-14.155 5.842C6.948 14.74 5 19.459 5 25s1.948 10.26 5.845 14.157C14.74 43.053 19.458 45 25 45z" fill="#000"/></svg>