<svg width="80" height="80" fill="none" xmlns="http://www.w3.org/2000/svg"><path d="M48.333 23.333a8.333 8.333 0 100-16.666 8.333 8.333 0 000 16.666v0z" stroke="#000" stroke-width="4" stroke-miterlimit="2"/><path d="M31.667 76.667a5 5 0 100-10 5 5 0 000 10z" fill="#000"/><path d="M40.634 31.517L33.334 45l12.183 10.033c.517.4.883.95 1.1 1.567l5.05 16.733M33.334 45l-9.15 12.733a3.352 3.352 0 01-4.067 1.2l-13.45-5.6" stroke="#000" stroke-width="4" stroke-miterlimit="2" stroke-linecap="round" stroke-linejoin="round"/><path d="M70 40H58.334c-.6 0-1.2-.15-1.734-.45l-5.35-3.017a65.66 65.66 0 00-21.616-7.966l-5.367-.95c-.75-.134-1.533 0-2.2.366l-10.4 5.35" stroke="#000" stroke-width="4" stroke-miterlimit="2" stroke-linecap="round" stroke-linejoin="round"/></svg>